
<svg viewBox="0 0 180 61" fill="none" xmlns="http://www.w3.org/2000/svg">
<path d="M4.94993 30.6656C4.94993 38.2603 11.1066 44.417 18.7013 44.417H19.2518C19.5526 44.417 19.8014 44.6655 19.8014 44.9722V46.062C19.8014 46.3733 19.5566 46.6172 19.2546 46.6172H18.7013C9.8915 46.6172 2.74968 39.4754 2.74968 30.6656V30.0212L1.71596 31.0549C1.50075 31.2701 1.15162 31.2677 0.934791 31.0509L0.164144 30.2803C-0.0559679 30.0601 -0.0531188 29.7124 0.163122 29.4961L3.07192 26.5873C3.50155 26.1577 4.19805 26.1577 4.62768 26.5873L7.53648 29.4961C7.7506 29.7103 7.75229 30.0635 7.53546 30.2803L6.76481 31.0509C6.5447 31.271 6.1982 31.2695 5.98364 31.0549L4.94993 30.0212V30.6656ZM32.4527 30.6656C32.4527 23.0708 26.296 16.9142 18.7013 16.9142H18.1537C17.8477 16.9142 17.6013 16.6656 17.6013 16.359V15.2692C17.6013 14.9578 17.8473 14.714 18.1508 14.714H18.7014C27.5112 14.714 34.6529 21.8558 34.6529 30.6656V31.31L35.6867 30.2763C35.9019 30.0611 36.2511 30.0635 36.4678 30.2803L37.2385 31.0509C37.4586 31.271 37.4557 31.6188 37.2395 31.835L34.3307 34.7439C33.9011 35.1735 33.2046 35.1735 32.775 34.7439L29.8661 31.835C29.652 31.6209 29.6503 31.2677 29.8671 31.0509L30.6378 30.2803C30.8579 30.0601 31.2043 30.0617 31.419 30.2763L32.4527 31.31V30.6656Z" fill="#0C0807"/>
<path d="M12.694 30.4773C12.694 26.8317 15.6488 23.8766 19.2947 23.8766C22.9404 23.8766 25.8954 26.8314 25.8954 30.4773C25.8954 34.1229 22.9406 37.0779 19.2947 37.0779C15.6491 37.0779 12.694 34.1232 12.694 30.4773Z" fill="#887474"/>
<path d="M59.2135 22.6688C61.8369 22.6688 63.9408 23.4481 65.5252 25.0065C67.1356 26.5649 67.9408 28.9156 67.9408 32.0584V44.1364H60.5382V33.2662C60.5382 30.3831 59.3824 28.9416 57.0707 28.9416C55.798 28.9416 54.772 29.3571 53.9927 30.1883C53.2395 31.0195 52.8629 32.2663 52.8629 33.9286V44.1364H45.4603V23.0195H52.5122V25.3182C53.3434 24.461 54.3304 23.8117 55.4733 23.3701C56.6161 22.9026 57.8629 22.6688 59.2135 22.6688ZM96.3935 22.6688C98.9906 22.6688 101.056 23.4481 102.588 25.0065C104.147 26.5649 104.926 28.9156 104.926 32.0584V44.1364H97.5234V33.2662C97.5234 31.7857 97.2374 30.6948 96.6662 29.9935C96.1208 29.2922 95.3415 28.9416 94.3286 28.9416C93.2119 28.9416 92.3158 29.3312 91.6402 30.1104C90.9647 30.8896 90.6273 32.0715 90.6273 33.6558V44.1364H83.2247V33.2662C83.2247 30.3831 82.1595 28.9416 80.0299 28.9416C78.8867 28.9416 77.9782 29.3312 77.3027 30.1104C76.6274 30.8896 76.2897 32.0715 76.2897 33.6558V44.1364H68.8871V23.0195H75.9391V25.2403C76.7183 24.3831 77.6404 23.7467 78.7052 23.3312C79.7961 22.8896 80.9782 22.6688 82.2506 22.6688C83.7311 22.6688 85.0558 22.9416 86.2247 23.487C87.3935 24.0325 88.3418 24.8637 89.0688 25.9805C89.9002 24.9156 90.9522 24.0974 92.2247 23.526C93.4971 22.9546 94.8873 22.6688 96.3935 22.6688ZM112.949 25.5519C113.702 24.5909 114.676 23.8766 115.871 23.4091C117.092 22.9156 118.481 22.6688 120.04 22.6688V29.3312C119.365 29.2532 118.806 29.2143 118.364 29.2143C116.78 29.2143 115.533 29.6429 114.624 30.5C113.741 31.3571 113.299 32.6688 113.299 34.4351V44.1364H105.897V23.0195H112.949V25.5519Z" fill="#887474"/>
<path d="M137.041 44.1364L131.391 35.6818L125.82 44.1364H117.015L126.95 30.3442L117.443 16.8636H126.132L131.586 24.7338L136.963 16.8636H145.301L135.794 30.0325L145.924 44.1364H137.041ZM146.451 23.0195H153.854V44.1364H146.451V23.0195ZM150.153 20.6818C148.802 20.6818 147.711 20.3052 146.88 19.552C146.049 18.7987 145.633 17.8636 145.633 16.7468C145.633 15.6299 146.049 14.6948 146.88 13.9416C147.711 13.1883 148.802 12.8117 150.153 12.8117C151.504 12.8117 152.595 13.1753 153.425 13.9026C154.257 14.6039 154.672 15.513 154.672 16.6299C154.672 17.7987 154.257 18.7727 153.425 19.552C152.595 20.3052 151.504 20.6818 150.153 20.6818ZM179.548 23.0195L170.821 44.1364H163.184L154.496 23.0195H162.094L167.158 35.9156L172.496 23.0195H179.548Z" fill="#0C0807"/>
<path d="M116.816 55V46.6H120.116C120.724 46.6 121.264 46.724 121.736 46.972C122.208 47.212 122.576 47.548 122.84 47.98C123.112 48.404 123.248 48.9 123.248 49.468C123.248 50.02 123.116 50.516 122.852 50.956C122.596 51.388 122.236 51.728 121.772 51.976C121.308 52.224 120.776 52.348 120.176 52.348H118.748V55H116.816ZM118.748 50.572H120.128C120.472 50.572 120.748 50.472 120.956 50.272C121.164 50.064 121.268 49.796 121.268 49.468C121.268 49.14 121.156 48.876 120.932 48.676C120.716 48.468 120.428 48.364 120.068 48.364H118.748V50.572ZM124.187 55V46.6H126.119V53.224H129.695V55H124.187ZM136.558 55L133.414 46.6H135.334L138.598 55H136.558ZM130.006 55L133.27 46.6H135.19L132.046 55H130.006ZM131.542 53.404V51.7H137.074V53.404H131.542ZM140.566 55V48.376H138.118V46.6H144.934V48.376H142.486V55H140.566ZM145.925 55V46.6H151.493V48.376H147.857V49.996H150.797V51.76H147.857V55H145.925ZM156.589 55.144C155.725 55.144 154.961 54.96 154.297 54.592C153.633 54.216 153.113 53.704 152.737 53.056C152.361 52.4 152.173 51.652 152.173 50.812C152.173 49.964 152.361 49.216 152.737 48.568C153.113 47.912 153.629 47.4 154.285 47.032C154.949 46.656 155.709 46.468 156.565 46.468C157.421 46.468 158.177 46.656 158.833 47.032C159.497 47.4 160.017 47.912 160.393 48.568C160.769 49.216 160.957 49.964 160.957 50.812C160.957 51.652 160.769 52.4 160.393 53.056C160.025 53.704 159.513 54.216 158.857 54.592C158.201 54.96 157.445 55.144 156.589 55.144ZM156.589 53.368C157.061 53.368 157.477 53.26 157.837 53.044C158.197 52.828 158.477 52.528 158.677 52.144C158.877 51.752 158.977 51.308 158.977 50.812C158.977 50.308 158.873 49.864 158.665 49.48C158.457 49.088 158.173 48.784 157.812 48.568C157.453 48.344 157.037 48.232 156.565 48.232C156.093 48.232 155.677 48.344 155.317 48.568C154.957 48.784 154.673 49.088 154.465 49.48C154.257 49.864 154.153 50.308 154.153 50.812C154.153 51.308 154.257 51.752 154.465 52.144C154.673 52.528 154.961 52.828 155.329 53.044C155.697 53.26 156.117 53.368 156.589 53.368ZM162.132 55V46.6H165.432C166.04 46.6 166.58 46.72 167.052 46.96C167.524 47.192 167.892 47.52 168.156 47.944C168.428 48.36 168.564 48.84 168.564 49.384C168.564 49.928 168.428 50.412 168.156 50.836C167.884 51.26 167.508 51.592 167.028 51.832C166.556 52.064 166.012 52.18 165.396 52.18H164.064V55H162.132ZM166.692 55L164.796 51.664L166.248 50.596L168.9 55H166.692ZM164.064 50.404H165.372C165.596 50.404 165.796 50.36 165.972 50.272C166.148 50.184 166.284 50.064 166.38 49.912C166.484 49.752 166.536 49.576 166.536 49.384C166.536 49.088 166.424 48.844 166.2 48.652C165.984 48.46 165.696 48.364 165.336 48.364H164.064V50.404ZM169.984 55V46.6H172.108L174.34 49.912L176.584 46.6H178.708V55H176.776V49.6L174.352 53.152L171.916 49.6V55H169.984Z" fill="#0C0807"/>
</svg>
